<svg xmlns="http://www.w3.org/2000/svg" fill="none" viewBox="248.9093625498008 176.03513484976864 1440.8926782470119 678.5827585404232" style="max-height: 500px" width="1440.8926782470119" height="678.5827585404232">
<path fill-opacity="0.3" fill="#E68369" d="M881 525.5C1182.89 398.865 1459.55 185.996 1673.12 186C1886.68 186.004 2317.26 854 1673.12 854C1600.26 854 251 853.367 251 853.367V392C251 392 489.5 712.5 881 525.5Z" style="--darkreader-inline-fill: #8e3018;" data-darkreader-inline-fill=""/>
<path fill-opacity="0.2" fill="#E68369" d="M130.396 323.984C134.545 389.22 1734.82 882.725 1817.5 212.962C1900.4 -458.538 2853.6 680.168 1692.4 595.768C1627.9 916.27 3077.9 893.77 1256.4 1042.77C-565.104 1191.77 130.396 385.767 130.396 385.767V323.984C130.386 323.814 130.386 323.648 130.396 323.485V323.984Z" style="--darkreader-inline-fill: #8e3018;" data-darkreader-inline-fill=""/>
</svg>