<svg style="max-height: 500px" viewBox="248.9093625498008 156.21136886993605 1526.3693625498008 698.4065245202559" fill="none" xmlns="http://www.w3.org/2000/svg" width="1526.3693625498008" height="698.4065245202559">
<path data-darkreader-inline-fill="" style="--darkreader-inline-fill: #8e3018;" d="M881 525.5C1182.89 398.865 1459.55 185.996 1673.12 186C1886.68 186.004 2317.26 854 1673.12 854C1600.26 854 251 853.367 251 853.367V392C251 392 489.5 712.5 881 525.5Z" fill="#E68369" fill-opacity="0.3"/>
<path data-darkreader-inline-fill="" style="--darkreader-inline-fill: #8e3018;" d="M130.396 323.984C134.545 389.22 1734.82 882.725 1817.5 212.962C1900.4 -458.538 2853.6 680.168 1692.4 595.768C1627.9 916.27 3077.9 893.77 1256.4 1042.77C-565.104 1191.77 130.396 385.767 130.396 385.767V323.984C130.386 323.814 130.386 323.648 130.396 323.485V323.984Z" fill="#E68369" fill-opacity="0.2"/>
</svg>