<svg width="217" height="178" viewBox="0 0 217 178" fill="none" xmlns="http://www.w3.org/2000/svg">
<path d="M180.087 12.7906L4.66406 75.6914L36.8126 165.35L212.235 102.449L180.087 12.7906Z" fill="white"/>
<path d="M36.2567 64.3633L4.66406 75.6914L36.8126 165.35L68.4053 154.022L36.2567 64.3633Z" fill="#EBEBEB"/>
<path d="M22.0306 80.3937C22.168 80.2562 22.3206 80.1309 22.4886 80.0178L22.4443 79.5574L23.3141 79.2278L23.5891 79.5967C23.7879 79.5695 23.9826 79.5614 24.1857 79.5768L24.5491 79.1819L25.3578 79.4476L25.2172 79.9126C25.3621 80.0106 25.4904 80.1233 25.5923 80.2544L26.1483 80.152L26.42 80.8484L25.9409 81.1349C25.9455 81.3008 25.9279 81.4659 25.881 81.6415L26.3017 81.8963L25.8711 82.6241L25.3355 82.5691C25.1982 82.7066 25.0455 82.8319 24.8747 82.9372L24.919 83.3976L24.0492 83.7272L23.7743 83.3583C23.5754 83.3855 23.3807 83.3935 23.1776 83.3782L22.8143 83.7731L22.0055 83.5074L22.1461 83.0424C22.0012 82.9444 21.873 82.8317 21.7613 82.7041L21.2053 82.8065L20.9336 82.11L21.4127 81.8236C21.4081 81.6577 21.4257 81.4926 21.4726 81.317L21.0518 81.0621L21.4825 80.3344L22.0181 80.3893L22.0306 80.3937ZM22.8338 81.1641C22.5832 81.5979 22.7639 82.0712 23.2372 82.2278C23.7202 82.381 24.3107 82.1604 24.5641 81.7344C24.8147 81.3005 24.6341 80.8273 24.1608 80.6706C23.6777 80.5175 23.0872 80.7381 22.8338 81.1641Z" fill="#E0E0E0"/>
<path d="M36.4256 97.5843L22.6525 102.523C21.8743 102.802 21.0502 102.524 20.8232 101.891C20.599 101.266 21.0463 100.523 21.8342 100.241L35.6073 95.3022C36.3855 95.0232 37.2096 95.301 37.4366 95.934C37.6608 96.5593 37.2135 97.3018 36.4256 97.5843Z" fill="#E0E0E0"/>
<path d="M34.3475 91.7913L20.5743 96.7299C19.7962 97.0089 18.9721 96.7311 18.7451 96.0981C18.5209 95.4728 18.9682 94.7303 19.756 94.4478L33.5292 89.5092C34.3073 89.2302 35.1315 89.508 35.3584 90.1411C35.5826 90.7663 35.1353 91.5088 34.3475 91.7913Z" fill="#E0E0E0"/>
<path d="M32.449 86.4945L18.6759 91.433C17.8978 91.7121 17.0736 91.4342 16.8466 90.8012C16.6225 90.176 17.0697 89.4335 17.8576 89.151L31.6308 84.2124C32.4089 83.9333 33.233 84.2111 33.46 84.8442C33.6842 85.4694 33.2369 86.2119 32.449 86.4945Z" fill="#E0E0E0"/>
<path d="M67.6101 68.0724L54.5665 72.7495C53.7884 73.0285 52.9643 72.7507 52.7373 72.1176C52.5131 71.4924 52.9604 70.7499 53.7482 70.4674L66.7919 65.7903C67.57 65.5113 68.3941 65.7891 68.6211 66.4222C68.8453 67.0474 68.398 67.7899 67.6101 68.0724Z" fill="#263238"/>
<path d="M69.743 74.0295L56.6993 78.7065C55.9212 78.9855 55.0971 78.7077 54.8701 78.0746C54.6459 77.4494 55.0932 76.7069 55.881 76.4244L68.9247 71.7474C69.7028 71.4684 70.5269 71.7462 70.7539 72.3792C70.9781 73.0044 70.5308 73.747 69.743 74.0295Z" fill="#E0E0E0"/>
<path d="M71.9539 80.1779L58.9103 84.8549C58.1321 85.1339 57.308 84.8561 57.081 84.2231C56.8568 83.5979 57.3041 82.8553 58.092 82.5728L71.1356 77.8958C71.9138 77.6168 72.7379 77.8946 72.9649 78.5277C73.1891 79.1529 72.7418 79.8954 71.9539 80.1779Z" fill="#FF725E"/>
<path d="M70.6441 94.0713L63.1642 96.7534C62.386 97.0324 61.5619 96.7546 61.3349 96.1215C61.1107 95.4963 61.558 94.7538 62.3459 94.4713L69.8258 91.7892C70.6039 91.5102 71.4281 91.788 71.655 92.4211C71.8792 93.0463 71.432 93.7888 70.6441 94.0713Z" fill="#263238"/>
<path d="M72.855 100.235L65.3751 102.917C64.597 103.196 63.7728 102.919 63.5459 102.286C63.3217 101.66 63.769 100.918 64.5568 100.635L72.0367 97.9533C72.8149 97.6743 73.639 97.9521 73.866 98.5851C74.0902 99.2103 73.6429 99.9529 72.855 100.235Z" fill="#263238"/>
<path d="M95.0899 92.2654L81.3751 97.1831C80.597 97.4621 79.7728 97.1842 79.5459 96.5512C79.3217 95.926 79.769 95.1835 80.5568 94.901L94.2716 89.9833C95.0497 89.7043 95.8739 89.9821 96.1008 90.6151C96.325 91.2404 95.8778 91.9829 95.0899 92.2654Z" fill="#E0E0E0"/>
<path d="M89.3047 100.531L75.59 105.449C74.8118 105.728 73.9877 105.45 73.7607 104.817C73.5365 104.192 73.9838 103.449 74.7717 103.167L88.4865 98.2489C89.2646 97.9699 90.0887 98.2477 90.3157 98.8807C90.5399 99.506 90.0926 100.248 89.3047 100.531Z" fill="#FF725E"/>
<path d="M84.3379 106.799L93.7632 103.42C94.2982 103.228 94.8523 103.426 95.0036 103.848L95.2614 104.567C95.4155 104.997 95.1011 105.498 94.5759 105.686L85.1506 109.066C84.6156 109.258 84.0616 109.059 83.9102 108.637L83.6524 107.918C83.4983 107.488 83.8127 106.988 84.3379 106.799Z" fill="#FF725E"/>
<path d="M98.5247 118.108L90.004 121.164C89.2259 121.443 88.4018 121.165 88.1748 120.532C87.9506 119.906 88.3979 119.164 89.1857 118.881L97.7064 115.826C98.4846 115.547 99.3087 115.825 99.5357 116.458C99.7598 117.083 99.3126 117.826 98.5247 118.108Z" fill="#FF725E"/>
<path d="M103.165 131.054L94.6446 134.109C93.8665 134.388 93.0424 134.11 92.8154 133.477C92.5912 132.852 93.0385 132.109 93.8264 131.827L102.347 128.771C103.125 128.492 103.949 128.77 104.176 129.403C104.4 130.029 103.953 130.771 103.165 131.054Z" fill="#FF725E"/>
<path d="M124.118 123.54L109.178 128.897C108.4 129.176 107.585 128.895 107.358 128.262C107.134 127.637 107.581 126.894 108.36 126.615L123.3 121.258C124.078 120.979 124.892 121.261 125.119 121.894C125.344 122.519 124.896 123.261 124.118 123.54Z" fill="#455A64"/>
<path d="M134.576 119.791L132.426 120.562C131.648 120.841 130.824 120.563 130.597 119.93C130.372 119.305 130.82 118.562 131.608 118.28L133.757 117.509C134.535 117.23 135.36 117.508 135.586 118.141C135.811 118.766 135.363 119.509 134.576 119.791Z" fill="#E0E0E0"/>
<path d="M118.583 110.918L105.957 115.445C105.179 115.724 104.355 115.446 104.128 114.813C103.904 114.188 104.351 113.445 105.139 113.163L117.764 108.636C118.542 108.357 119.367 108.634 119.594 109.267C119.818 109.893 119.37 110.635 118.583 110.918Z" fill="#E0E0E0"/>
<path d="M148.318 106.672L108 121.128C107.222 121.407 106.398 121.13 106.171 120.497C105.947 119.871 106.394 119.129 107.182 118.846L147.499 104.39C148.278 104.111 149.092 104.392 149.319 105.025C149.543 105.65 149.096 106.393 148.318 106.672Z" fill="#E0E0E0"/>
<path d="M150.929 99.3218L125.192 108.55C124.413 108.829 123.589 108.551 123.362 107.918C123.138 107.293 123.585 106.551 124.373 106.268L150.11 97.0397C150.888 96.7606 151.713 97.0385 151.94 97.6715C152.164 98.2967 151.716 99.0393 150.929 99.3218Z" fill="#455A64"/>
<path d="M99.4083 101.397L110.973 97.25C111.508 97.0582 112.062 97.2564 112.214 97.6785L112.472 98.3975C112.626 98.8273 112.311 99.3281 111.786 99.5165L100.221 103.663C99.686 103.855 99.1319 103.657 98.9806 103.235L98.7227 102.516C98.5686 102.086 98.883 101.585 99.4083 101.397Z" fill="#455A64"/>
<path d="M120.193 93.9481L116.643 95.2211C116.111 95.4118 115.804 95.9128 115.957 96.3401L116.218 97.067C116.371 97.4943 116.926 97.6861 117.458 97.4954L121.008 96.2224C121.54 96.0317 121.847 95.5307 121.694 95.1034L121.433 94.3766C121.28 93.9492 120.725 93.7574 120.193 93.9481Z" fill="#E0E0E0"/>
<path d="M140.531 86.6542L126.291 91.7602C125.759 91.9509 125.452 92.4519 125.606 92.8792L125.866 93.606C126.019 94.0333 126.575 94.2252 127.107 94.0345L141.347 88.9285C141.878 88.7378 142.185 88.2368 142.032 87.8094L141.771 87.0826C141.618 86.6553 141.063 86.4635 140.531 86.6542Z" fill="#E0E0E0"/>
<path d="M98.5934 97.2012L95.5392 98.2963C94.761 98.5753 93.9369 98.2975 93.7099 97.6645C93.4857 97.0392 93.933 96.2967 94.7209 96.0142L97.7751 94.9191C98.5533 94.6401 99.3774 94.9179 99.6044 95.5509C99.8285 96.1762 99.3813 96.9187 98.5934 97.2012Z" fill="#263238"/>
<path d="M124.487 87.9151L105.024 94.894C104.245 95.173 103.421 94.8952 103.194 94.2621C102.97 93.6369 103.417 92.8944 104.205 92.6119L123.669 85.633C124.447 85.354 125.271 85.6318 125.498 86.2648C125.722 86.89 125.275 87.6326 124.487 87.9151Z" fill="#E0E0E0"/>
<path d="M88.5047 60.5803L75.4611 65.2573C74.6829 65.5363 73.8588 65.2585 73.6318 64.6254C73.4076 64.0002 73.8549 63.2577 74.6428 62.9752L87.6864 58.2982C88.4645 58.0191 89.2887 58.297 89.5157 58.93C89.7398 59.5552 89.2925 60.2977 88.5047 60.5803Z" fill="#455A64"/>
<path d="M107.445 60.5066L77.5939 71.2104C76.8157 71.4894 75.9916 71.2116 75.7646 70.5785C75.5404 69.9533 75.9877 69.2108 76.7756 68.9283L106.627 58.2245C107.405 57.9455 108.229 58.2233 108.456 58.8564C108.681 59.4816 108.233 60.2241 107.445 60.5066Z" fill="#263238"/>
<path d="M141.796 55.1321L79.797 77.3627C79.0189 77.6418 78.1947 77.3639 77.9677 76.7309C77.7436 76.1057 78.1908 75.3631 78.9787 75.0806L140.977 52.85C141.755 52.571 142.58 52.8488 142.807 53.4818C143.031 54.1071 142.583 54.8496 141.796 55.1321Z" fill="#E0E0E0"/>
<path d="M110.585 71.222L81.3556 81.7026C80.5774 81.9816 79.7533 81.7038 79.5263 81.0707C79.3021 80.4455 79.7494 79.703 80.5373 79.4205L109.766 68.9399C110.544 68.6609 111.369 68.9387 111.596 69.5718C111.82 70.197 111.372 70.9395 110.585 71.222Z" fill="#E0E0E0"/>
<path d="M107.323 80.9212L78.0939 91.4018C77.3157 91.6808 76.4916 91.403 76.2646 90.7699C76.0404 90.1447 76.4877 89.4022 77.2756 89.1197L106.505 78.6391C107.283 78.3601 108.107 78.6379 108.334 79.271C108.558 79.8962 108.111 80.6387 107.323 80.9212Z" fill="#455A64"/>
<path d="M123.686 75.0537L113.891 78.5659C113.113 78.8449 112.288 78.5671 112.061 77.934C111.837 77.3088 112.285 76.5663 113.072 76.2838L122.867 72.7716C123.645 72.4926 124.47 72.7704 124.697 73.4035C124.921 74.0287 124.473 74.7712 123.686 75.0537Z" fill="#FF725E"/>
<path d="M148.729 66.0264L130.219 72.6635C129.441 72.9425 128.617 72.6647 128.39 72.0317C128.165 71.4064 128.613 70.6639 129.401 70.3814L147.911 63.7443C148.689 63.4653 149.513 63.7431 149.74 64.3762C149.964 65.0014 149.517 65.7439 148.729 66.0264Z" fill="#263238"/>
<path d="M173.909 56.9991L155.399 63.6362C154.62 63.9152 153.796 63.6374 153.569 63.0043C153.345 62.3791 153.792 61.6366 154.58 61.3541L173.09 54.717C173.868 54.438 174.693 54.7158 174.92 55.3488C175.144 55.9741 174.697 56.7166 173.909 56.9991Z" fill="#E0E0E0"/>
<path d="M32.6584 105.855L24.8478 108.656C24.0696 108.935 23.2455 108.657 23.0185 108.024C22.7943 107.399 23.2416 106.656 24.0295 106.374L31.8401 103.573C32.6182 103.294 33.4424 103.572 33.6694 104.205C33.8935 104.83 33.4463 105.573 32.6584 105.855Z" fill="#E0E0E0"/>
<path d="M36.9236 125.09L31.4572 127.05C30.679 127.329 29.8549 127.051 29.6279 126.418C29.4037 125.793 29.851 125.051 30.6389 124.768L36.1053 122.808C36.8835 122.529 37.7076 122.807 37.9346 123.44C38.1588 124.065 37.7115 124.808 36.9236 125.09Z" fill="#E0E0E0"/>
<path d="M42.2422 109.336L27.0587 114.781C26.2806 115.06 25.4564 114.782 25.2295 114.149C25.0053 113.524 25.4526 112.781 26.2404 112.499L41.4239 107.054C42.2021 106.775 43.0262 107.053 43.2532 107.686C43.4774 108.311 43.0301 109.054 42.2422 109.336Z" fill="#E0E0E0"/>
<path d="M41.7763 116.429L29.2579 120.917C28.4798 121.196 27.6557 120.919 27.4287 120.286C27.2045 119.66 27.6518 118.918 28.4396 118.635L40.958 114.147C41.7362 113.868 42.5603 114.145 42.7873 114.778C43.0115 115.404 42.5642 116.146 41.7763 116.429Z" fill="#E0E0E0"/>
<path d="M47.7587 73.9134C47.9885 74.5542 47.5315 75.3003 46.7339 75.5862C45.9363 75.8722 45.1094 75.5866 44.8796 74.9457C44.6498 74.3049 45.1068 73.5589 45.9044 73.2729C46.702 72.9869 47.5289 73.2725 47.7587 73.9134Z" fill="#455A64"/>
<path d="M44.5581 69.5198C45.3532 69.2348 45.812 68.4858 45.5829 67.847C45.3539 67.2082 44.5237 66.9214 43.7286 67.2065C42.9336 67.4916 42.4748 68.2405 42.7038 68.8793C42.9329 69.5182 43.7631 69.8049 44.5581 69.5198Z" fill="#455A64"/>
<path d="M48.8628 81.512C49.6579 81.227 50.1167 80.478 49.8876 79.8392C49.6586 79.2003 48.8284 78.9136 48.0333 79.1987C47.2383 79.4837 46.7794 80.2327 47.0085 80.8715C47.2376 81.5103 48.0678 81.7971 48.8628 81.512Z" fill="#455A64"/>
<path d="M51.0737 87.6917C51.8688 87.4066 52.3276 86.6577 52.0986 86.0188C51.8695 85.38 51.0393 85.0933 50.2442 85.3784C49.4492 85.6634 48.9904 86.4124 49.2194 87.0512C49.4485 87.69 50.2787 87.9768 51.0737 87.6917Z" fill="#455A64"/>
<path d="M53.2886 93.8558C54.0836 93.5707 54.5425 92.8217 54.3134 92.1829C54.0843 91.5441 53.2541 91.2573 52.4591 91.5424C51.664 91.8275 51.2052 92.5765 51.4343 93.2153C51.6633 93.8541 52.4935 94.1408 53.2886 93.8558Z" fill="#455A64"/>
<path d="M56.5243 98.3548C56.7541 98.9957 56.2971 99.7417 55.4995 100.028C54.7019 100.314 53.875 100.028 53.6452 99.3871C53.4154 98.7463 53.8724 98.0003 54.67 97.7143C55.4676 97.4283 56.2945 97.7139 56.5243 98.3548Z" fill="#455A64"/>
<path d="M57.7144 106.196C58.5094 105.911 58.9682 105.162 58.7392 104.523C58.5101 103.884 57.6799 103.597 56.8849 103.882C56.0898 104.167 55.631 104.916 55.8601 105.555C56.0891 106.194 56.9193 106.481 57.7144 106.196Z" fill="#455A64"/>
<path d="M59.9292 112.371C60.7243 112.086 61.1831 111.337 60.954 110.699C60.725 110.06 59.8948 109.773 59.0997 110.058C58.3047 110.343 57.8458 111.092 58.0749 111.731C58.304 112.37 59.1342 112.656 59.9292 112.371Z" fill="#455A64"/>
<path d="M63.1611 116.867C63.3908 117.507 62.9338 118.253 62.1362 118.539C61.3386 118.825 60.5117 118.54 60.2819 117.899C60.0521 117.258 60.5092 116.512 61.3067 116.226C62.1043 115.94 62.9313 116.226 63.1611 116.867Z" fill="#455A64"/>
<path d="M65.372 123.027C65.6018 123.668 65.1448 124.414 64.3472 124.7C63.5496 124.986 62.7227 124.7 62.4929 124.059C62.2631 123.418 62.7201 122.672 63.5177 122.386C64.3153 122.1 65.1422 122.386 65.372 123.027Z" fill="#455A64"/>
<path d="M66.562 130.879C67.3571 130.594 67.8159 129.845 67.5868 129.206C67.3578 128.568 66.5276 128.281 65.7325 128.566C64.9375 128.851 64.4787 129.6 64.7077 130.239C64.9368 130.878 65.767 131.164 66.562 130.879Z" fill="#455A64"/>
<path d="M69.7978 135.37C70.0276 136.011 69.5706 136.757 68.773 137.043C67.9754 137.329 67.1484 137.044 66.9187 136.403C66.6889 135.762 67.1459 135.016 67.9435 134.73C68.7411 134.444 69.568 134.73 69.7978 135.37Z" fill="#455A64"/>
<path d="M70.9878 143.215C71.7829 142.93 72.2417 142.181 72.0126 141.542C71.7836 140.903 70.9534 140.617 70.1583 140.902C69.3633 141.187 68.9044 141.936 69.1335 142.575C69.3626 143.213 70.1928 143.5 70.9878 143.215Z" fill="#455A64"/>
<path d="M5.54345 61.5819L171.979 1.90371C174.041 1.16432 176.186 1.91217 176.777 3.56122L180.087 12.7912L4.66413 75.692L1.79452 67.6891C0.959419 65.3601 2.63514 62.6247 5.53372 61.5854L5.54345 61.5819Z" fill="#E0E0E0"/>
<path d="M12.2767 68.3803C13.4317 67.9662 14.0982 66.8781 13.7655 65.9501C13.4327 65.0221 12.2267 64.6055 11.0717 65.0197C9.91676 65.4338 9.25022 66.5218 9.58297 67.4498C9.91573 68.3779 11.1218 68.7944 12.2767 68.3803Z" fill="white"/>
<path d="M20.1991 63.6494C20.5326 64.5794 19.8678 65.6645 18.7103 66.0795C17.5528 66.4946 16.35 66.0791 16.0166 65.1491C15.6831 64.219 16.3478 63.1339 17.5053 62.7189C18.6628 62.3039 19.8656 62.7193 20.1991 63.6494Z" fill="white"/>
<path d="M26.6249 61.3408C26.9583 62.2708 26.2936 63.3559 25.1361 63.7709C23.9786 64.186 22.7758 63.7705 22.4423 62.8405C22.1089 61.9104 22.7736 60.8253 23.9311 60.4103C25.0886 59.9953 26.2914 60.4107 26.6249 61.3408Z" fill="white"/>
<path d="M73.625 150.582L93.0766 158.143L101.911 140.44L73.625 150.582Z" fill="white"/>
<path d="M207.48 104.164C207.48 104.164 208.049 104.004 208.936 103.386C209.375 103.079 209.871 102.627 210.287 102.011C210.706 101.402 211.022 100.601 211.004 99.7251C211.01 99.2821 210.888 98.8495 210.713 98.3919C210.55 97.9386 210.377 97.4541 210.197 96.9539C209.836 95.9457 209.443 94.8516 209.005 93.6593C208.15 91.2756 207.154 88.528 206.035 85.4366C201.573 73.0562 195.121 55.1537 187.153 33.0231C185.169 27.4898 183.08 21.6943 180.904 15.6565C179.819 12.6319 178.715 9.55262 177.589 6.41082C177.302 5.64058 177.046 4.80601 176.719 4.07666C176.343 3.36475 175.69 2.76961 174.837 2.44058C173.997 2.08894 172.982 2.01206 171.989 2.18276C171.017 2.38123 169.995 2.83605 168.985 3.17184C152.78 8.98236 135.481 15.2026 117.263 21.7351C99.0449 28.2676 79.9221 35.1244 60.1142 42.2445C50.2026 45.7985 40.1159 49.4152 29.8833 53.0843C24.767 54.9189 19.6118 56.7673 14.4177 58.6298C11.8207 59.561 9.22362 60.4922 6.60711 61.4304C5.96795 61.6684 5.26894 61.8926 4.67709 62.1401C4.08112 62.4067 3.5341 62.7793 3.07908 63.2247C2.17595 64.1042 1.67688 65.2533 1.7451 66.3314C1.77904 67.069 2.15787 67.7887 2.39903 68.5225L3.18929 70.7264C3.71613 72.1957 4.24017 73.6572 4.76421 75.1187C5.81229 78.0417 6.85477 80.949 7.89164 83.8407C9.96538 89.6241 12.0223 95.3606 14.054 101.027C18.1174 112.359 22.0883 123.434 25.9472 134.195C27.8752 139.572 29.778 144.879 31.6472 150.092C32.5831 152.702 33.5079 155.281 34.4271 157.845C34.8839 159.119 35.3296 160.423 35.8044 161.655C36.3068 162.842 37.6177 163.651 39.1341 163.778C39.8854 163.852 40.6779 163.736 41.4255 163.494C42.2036 163.215 42.9818 162.936 43.7502 162.661C45.2968 162.106 46.8433 161.551 48.3802 161C51.4538 159.898 54.4886 158.81 57.5039 157.729C63.5248 155.57 69.4095 153.46 75.1677 151.395L75.265 151.36L75.3527 151.391C81.4368 153.663 87.3329 155.871 93.0508 158.011L92.7492 158.119C95.4887 152.656 98.1189 147.408 100.641 142.35L100.68 142.274L100.767 142.243C133.616 130.499 160.295 120.959 178.772 114.352C188.009 111.058 195.193 108.499 200.068 106.76C202.503 105.896 204.364 105.237 205.621 104.795C206.876 104.345 207.517 104.142 207.517 104.142C207.517 104.142 206.88 104.388 205.638 104.842C204.383 105.292 202.531 105.974 200.102 106.854C195.222 108.612 188.049 111.202 178.834 114.524C160.368 121.163 133.706 130.749 100.879 142.555L101.006 142.448C98.4835 147.507 95.8659 152.759 93.132 158.237L93.0366 158.43L92.8333 158.353C87.1085 156.225 81.2124 154.017 75.1214 151.756L75.2966 151.755C69.5481 153.816 63.6537 155.93 57.6328 158.088C54.6272 159.166 51.5827 160.258 48.5091 161.36C46.9722 161.911 45.4257 162.466 43.8791 163.02C43.101 163.299 42.3228 163.578 41.5447 163.857C40.7192 164.127 39.8433 164.256 39.0128 164.174C37.3503 164.038 35.9001 163.147 35.3431 161.838C34.8515 160.559 34.4295 159.29 33.9477 158.008C33.0285 155.444 32.1009 152.858 31.1677 150.255C29.2986 145.042 27.3986 139.743 25.4678 134.358C21.6089 123.597 17.638 112.522 13.5746 101.19C11.5429 95.5237 9.48876 89.795 7.41222 84.0038C6.37535 81.1121 5.33287 78.2048 4.28479 75.2818C3.76075 73.8203 3.23672 72.3588 2.70987 70.8895L1.52448 67.5836C1.39557 67.2241 1.2693 66.8107 1.25151 66.3937C1.17324 65.1958 1.72342 63.9136 2.73618 62.9419C3.24116 62.4521 3.85066 62.0395 4.51192 61.7407C5.19823 61.4505 5.83196 61.2585 6.48778 61.0057C9.09456 60.071 11.7013 59.1363 14.2984 58.2051C19.4925 56.3427 24.6477 54.4942 29.764 52.6596C39.9966 48.9906 50.0833 45.3738 59.9949 41.8198C79.8181 34.7119 98.9437 27.8629 117.155 21.3417C135.373 14.8092 152.683 8.62021 168.888 2.80969C169.908 2.47041 170.869 2.0287 171.983 1.79703C173.068 1.61058 174.176 1.69862 175.093 2.08404C176.015 2.45034 176.729 3.09405 177.14 3.87282C177.495 4.68033 177.728 5.45237 178.024 6.24606C179.15 9.38785 180.254 12.4671 181.339 15.4917C183.505 21.533 185.575 27.3355 187.549 32.8723C195.456 55.016 201.853 72.9472 206.275 85.3416C207.385 88.4365 208.352 91.1945 209.206 93.5782C209.632 94.7662 210.027 95.8681 210.379 96.8798C210.559 97.38 210.732 97.8646 210.895 98.3178C211.057 98.7711 211.188 99.2271 211.172 99.6737C211.176 100.572 210.85 101.377 210.415 102C209.992 102.628 209.473 103.079 209.022 103.382C208.574 103.693 208.189 103.875 207.932 103.984C207.669 104.079 207.533 104.127 207.533 104.127L207.48 104.164Z" fill="#263238"/>
</svg>
