<svg width="128" height="120" viewBox="0 0 128 120" fill="none" xmlns="http://www.w3.org/2000/svg">
<path d="M2.34491 78.0448L91.7146 2.56991C92.8625 1.60051 94.426 1.56229 95.2049 2.48459L125.707 38.602C126.637 39.7035 126.279 41.5412 124.908 42.6989L35.9448 117.83C34.7969 118.8 33.2334 118.838 32.4545 117.916L1.67656 81.4715C0.897653 80.5492 1.19704 79.0142 2.34491 78.0448Z" fill="white"/>
<path d="M2.5495 77.8747L91.5191 2.73772C92.7785 1.67415 94.4895 1.6377 95.3397 2.64433L101.01 9.3587L7.48835 88.34L1.8179 81.6257C0.963328 80.6138 1.29668 78.9327 2.5495 77.8747Z" fill="#E0E0E0"/>
<path d="M124.764 42.8216C124.764 42.8216 125.018 42.6164 125.399 42.123C125.756 41.6409 126.222 40.7688 126.096 39.7284C126.039 39.208 125.785 38.7086 125.361 38.2725C124.969 37.8087 124.537 37.2974 124.063 36.7496C123.133 35.6481 122.05 34.3782 120.832 32.9503C115.972 27.222 108.951 18.9484 100.279 8.71952C99.1975 7.43883 98.0892 6.12652 96.9587 4.78787C96.3934 4.11854 95.8192 3.43867 95.2406 2.75353C94.7519 2.02853 93.7474 1.75724 92.7572 2.11495C92.2587 2.28313 91.8476 2.6213 91.406 3.00326C90.9666 3.3744 90.5271 3.74554 90.0811 4.12222C89.1956 4.87004 88.2969 5.62895 87.3918 6.39339C85.5814 7.92228 83.7383 9.47886 81.8623 11.0631C74.3651 17.3947 66.3586 24.1745 57.93 31.2926C41.0661 45.5345 22.5342 61.1943 3.07732 77.6351C2.76248 77.9009 2.47598 78.1339 2.25156 78.4137C2.02058 78.6991 1.84489 79.01 1.72659 79.3356C1.48999 79.9869 1.52231 80.6638 1.81537 81.1838C1.95194 81.4387 2.18081 81.6698 2.37899 81.9178L4.21721 84.0944C5.84624 86.0233 7.46637 87.9417 9.0776 89.8496C12.2956 93.66 15.4646 97.4125 18.5758 101.096C21.6915 104.786 24.7492 108.406 27.7447 111.953C29.2402 113.724 30.7223 115.479 32.1911 117.218C32.844 118.085 34.1633 118.343 35.3527 117.835C35.9564 117.605 36.4481 117.163 36.9859 116.708C37.5172 116.26 38.042 115.817 38.5733 115.368C55.446 101.137 70.6396 88.3232 83.4062 77.5596C96.1707 66.8067 106.502 58.109 113.647 52.0926C117.218 49.0952 119.995 46.7681 121.882 45.1836C122.817 44.4023 123.537 43.8037 124.033 43.3935C124.512 42.9892 124.775 42.7945 124.775 42.7945C124.775 42.7945 124.534 43.0155 124.06 43.4252C123.575 43.8351 122.864 44.4441 121.935 45.2468C120.057 46.8419 117.298 49.1901 113.745 52.2086C106.617 58.246 96.3066 66.9809 83.5753 77.7598C70.8265 88.5446 55.6463 101.374 38.7958 115.631C38.2711 116.075 37.7398 116.523 37.2085 116.972C36.6969 117.404 36.1243 117.924 35.4372 118.188C34.0921 118.764 32.5896 118.462 31.8721 117.506C30.4077 115.772 28.9256 114.017 27.4256 112.241C24.4302 108.694 21.3724 105.073 18.2568 101.384C15.1411 97.6947 11.9721 93.9422 8.75854 90.1371C7.15176 88.2345 5.53163 86.3161 3.89815 84.3819L2.67416 82.9326L2.05993 82.2053C1.85519 81.9628 1.63077 81.737 1.4607 81.4292C1.1229 80.8296 1.08519 80.0398 1.35833 79.2854C1.49163 78.911 1.69988 78.5455 1.96787 78.2108C2.23587 77.8762 2.57273 77.6097 2.86345 77.3552C22.3247 60.9197 40.8656 45.2705 57.7339 31.0339C66.1625 23.9157 74.1868 17.157 81.684 10.8254C83.56 9.24117 85.4031 7.68457 87.2135 6.15568C88.1187 5.39124 89.0173 4.63234 89.9028 3.88452C90.3488 3.50784 90.7883 3.13669 91.2278 2.76555C91.6452 2.39495 92.1526 1.9845 92.7083 1.80416C93.8191 1.38971 94.9916 1.72682 95.5027 2.50505C96.0814 3.19019 96.6555 3.87006 97.2208 4.53939C98.3513 5.87805 99.4596 7.19036 100.541 8.47104C109.174 18.7331 116.156 27.04 120.99 32.7904C122.2 34.2239 123.26 35.5052 124.194 36.6119C124.662 37.1653 125.089 37.6713 125.479 38.1459C125.674 38.3777 125.866 38.6044 125.985 38.865C126.104 39.1257 126.179 39.3875 126.21 39.6503C126.318 40.7234 125.835 41.6013 125.46 42.0892C125.068 42.5829 124.796 42.767 124.796 42.767L124.764 42.8216Z" fill="#263238"/>
<path d="M12.5853 80.26C13.5489 79.4462 13.8 78.1589 13.1461 77.3846C12.4922 76.6104 11.181 76.6424 10.2174 77.4562C9.25381 78.27 9.00272 79.5573 9.6566 80.3316C10.3105 81.1058 11.6217 81.0738 12.5853 80.26Z" fill="white"/>
<path d="M18.4977 72.8651C19.152 73.6398 18.9011 74.9262 17.9369 75.7405C16.9727 76.5548 15.6624 76.5868 15.0082 75.8121C14.3539 75.0373 14.6048 73.751 15.569 72.9367C16.5332 72.1224 17.8434 72.0903 18.4977 72.8651Z" fill="white"/>
<path d="M23.304 71.2092C24.2676 70.3954 24.5187 69.1081 23.8649 68.3338C23.211 67.5596 21.8998 67.5916 20.9362 68.4054C19.9726 69.2192 19.7215 70.5066 20.3753 71.2808C21.0292 72.0551 22.3404 72.023 23.304 71.2092Z" fill="white"/>
<path d="M44.6035 77.626L33.7283 86.8104C33.0789 87.3588 32.1871 87.3806 31.7465 86.8588C31.3058 86.3371 31.4766 85.4615 32.126 84.9131L43.0012 75.7287C43.6506 75.1803 44.5424 75.1585 44.983 75.6802C45.4237 76.202 45.2529 77.0776 44.6035 77.626Z" fill="#263238"/>
<path d="M48.791 82.5869L37.9158 91.7713C37.2664 92.3197 36.3746 92.3415 35.934 91.8198C35.4933 91.298 35.6641 90.4224 36.3135 89.874L47.1887 80.6896C47.8381 80.1412 48.7299 80.1194 49.1705 80.6412C49.6112 81.1629 49.4404 82.0385 48.791 82.5869Z" fill="#E0E0E0"/>
<path d="M101.996 29.1572L70.4588 55.7908C69.8094 56.3392 68.9176 56.361 68.4769 55.8393C68.0363 55.3175 68.2071 54.4419 68.8564 53.8935L100.393 27.2599C101.043 26.7115 101.934 26.6897 102.375 27.2115C102.816 27.7332 102.645 28.6088 101.996 29.1572Z" fill="#E0E0E0"/>
<path d="M53.1231 87.7158L42.2478 96.9002C41.5985 97.4486 40.7066 97.4704 40.266 96.9487C39.8254 96.4269 39.9961 95.5513 40.6455 95.0029L51.5207 85.8185C52.1701 85.2701 53.0619 85.2483 53.5026 85.7701C53.9432 86.2918 53.7724 87.1674 53.1231 87.7158Z" fill="#FF725E"/>
<path d="M98.6621 40.4697L87.7869 49.6541C87.1375 50.2025 86.2457 50.2243 85.8051 49.7026C85.3644 49.1808 85.5352 48.3052 86.1846 47.7568L97.0598 38.5724C97.7092 38.024 98.601 38.0022 99.0416 38.524C99.4823 39.0457 99.3115 39.9213 98.6621 40.4697Z" fill="#FF725E"/>
<path d="M62.0254 62.915L51.1502 72.0994C50.5008 72.6478 49.609 72.6696 49.1683 72.1479C48.7277 71.6261 48.8985 70.7505 49.5478 70.2021L60.4231 61.0177C61.0724 60.4693 61.9643 60.4475 62.4049 60.9693C62.8455 61.491 62.6748 62.3666 62.0254 62.915Z" fill="#455A64"/>
<path d="M80.2169 56.0493L55.3377 77.0604C54.6883 77.6088 53.7965 77.6306 53.3559 77.1088C52.9152 76.5871 53.086 75.7115 53.7353 75.1631L78.6146 54.152C79.2639 53.6036 80.1558 53.5818 80.5964 54.1035C81.037 54.6253 80.8663 55.5009 80.2169 56.0493Z" fill="#263238"/>
<path d="M108.956 40.562L59.6172 82.2297C58.9941 82.7559 58.1285 82.7556 57.6879 82.2338C57.2472 81.712 57.3918 80.8586 58.0149 80.3324L107.354 38.6647C107.977 38.1385 108.842 38.1388 109.283 38.6606C109.724 39.1823 109.579 40.0358 108.956 40.562Z" fill="#E0E0E0"/>
<path d="M87.0776 65.2252L62.7166 85.7987C62.0672 86.3471 61.1754 86.3689 60.7348 85.8471C60.2941 85.3253 60.4649 84.4497 61.1143 83.9013L85.4753 63.3279C86.1247 62.7795 87.0165 62.7577 87.4571 63.2794C87.8978 63.8012 87.727 64.6768 87.0776 65.2252Z" fill="#E0E0E0"/>
<path d="M27.6019 90.3628C28.0515 90.8951 27.8786 91.7815 27.2161 92.341C26.5536 92.9005 25.6508 92.9225 25.2012 92.3902C24.7517 91.8579 24.9246 90.9715 25.5871 90.4121C26.2495 89.8526 27.1524 89.8305 27.6019 90.3628Z" fill="#455A64"/>
<path d="M23.5902 85.6128C24.0397 86.1451 23.8669 87.0315 23.2044 87.591C22.5419 88.1505 21.6391 88.1725 21.1895 87.6402C20.74 87.1079 20.9129 86.2215 21.5753 85.6621C22.2378 85.1026 23.1407 85.0805 23.5902 85.6128Z" fill="#455A64"/>
<path d="M31.388 97.2824C32.0509 96.7225 32.2236 95.8369 31.7738 95.3042C31.3239 94.7716 30.4219 94.7936 29.7589 95.3535C29.096 95.9133 28.9233 96.799 29.3731 97.3317C29.823 97.8643 30.725 97.8423 31.388 97.2824Z" fill="#455A64"/>
<path d="M35.7317 102.427C36.3946 101.867 36.5674 100.981 36.1175 100.449C35.6677 99.9161 34.7656 99.9381 34.1027 100.498C33.4398 101.058 33.267 101.944 33.7169 102.476C34.1667 103.009 35.0688 102.987 35.7317 102.427Z" fill="#455A64"/>
<path d="M34.3436 74.5797L27.6531 80.2299C27.3054 80.5236 27.2147 80.9882 27.4507 81.2677L28.1406 82.0846C28.3766 82.364 28.8498 82.3524 29.1976 82.0587L35.888 76.4085C36.2358 76.1148 36.3264 75.6502 36.0904 75.3708L35.4005 74.5539C35.1645 74.2744 34.6913 74.286 34.3436 74.5797Z" fill="#455A64"/>
</svg>
