<svg width="229" height="216" viewBox="0 0 229 216" fill="none" xmlns="http://www.w3.org/2000/svg">
<path d="M226.17 117.734L158.584 5.11148C157.351 3.05651 155.013 2.19388 153.362 3.18474L3.84844 92.9083C2.19728 93.8992 1.85845 96.3683 3.09165 98.4233L70.677 211.046C71.9102 213.101 74.2484 213.964 75.8996 212.973L225.413 123.249C227.064 122.258 227.403 119.789 226.17 117.734Z" fill="white"/>
<path d="M158.986 5.78026L225.871 117.236C227.272 119.57 226.879 122.37 225.012 123.49L211.031 131.88L138.98 11.8153L152.825 3.50722C154.769 2.34045 157.534 3.36049 158.986 5.78026Z" fill="#E0E0E0"/>
<path d="M70.495 210.741C70.495 210.741 70.7989 211.336 71.6953 212.121C72.1533 212.508 72.7821 212.891 73.5527 213.09C74.3258 213.271 75.2505 213.262 76.081 212.764C79.4053 210.752 84.2758 207.796 90.563 203.99C103.172 196.391 121.391 185.408 143.909 171.845C166.444 158.289 193.285 142.165 223.062 124.245L224.459 123.407C224.938 123.12 225.368 122.862 225.7 122.464C226.373 121.68 226.621 120.456 226.382 119.26C226.269 118.65 226.035 118.062 225.69 117.508L224.632 115.745C223.924 114.566 223.216 113.386 222.501 112.195C219.648 107.44 216.766 102.637 213.854 97.7854C208.024 88.0698 202.077 78.1597 196.02 68.0672C183.907 47.8822 171.363 26.9797 158.521 5.57868C157.776 4.33839 156.536 3.44533 155.297 3.26276C154.68 3.18656 154.079 3.24912 153.552 3.4995C153.032 3.76204 152.497 4.13272 151.962 4.43717C149.822 5.7212 147.692 6.99936 145.572 8.27166C141.322 10.8221 137.101 13.355 132.92 15.8644C124.537 20.895 116.291 25.8435 108.172 30.7157C91.9534 40.4486 76.2942 49.8291 61.3776 58.7641C46.4682 67.7113 32.2868 76.1885 19.0384 84.1389C15.7263 86.1265 12.4631 88.0848 9.26824 90.0021C7.66592 90.9636 6.08315 91.9134 4.51992 92.8515C2.90091 93.6081 2.3015 95.8201 3.08106 97.7835C3.47213 98.7231 4.15596 99.6854 4.69101 100.621C5.26018 101.57 5.82205 102.506 6.39122 103.454C7.51497 105.327 8.63142 107.187 9.73327 109.024C11.937 112.696 14.0896 116.283 16.1985 119.797C32.9937 147.873 46.5978 170.587 56.006 186.309C60.6931 194.163 64.3221 200.255 66.8006 204.407C68.024 206.468 68.9556 208.043 69.588 209.118C70.2228 210.176 70.5219 210.741 70.5219 210.741C70.5219 210.741 70.174 210.206 69.5293 209.154C68.8872 208.084 67.9361 206.521 66.6834 204.478C64.1853 200.337 60.5172 194.269 55.7911 186.438C46.351 170.751 32.6981 148.067 15.8272 120.02C13.7256 116.518 11.5657 112.919 9.362 109.246C8.26014 107.41 7.14369 105.55 6.01994 103.677C5.45807 102.741 4.8889 101.793 4.31973 100.844C3.77257 99.8659 3.12759 99.0125 2.65389 97.891C2.22163 96.7942 2.14333 95.6008 2.43554 94.582C2.70823 93.5749 3.39535 92.7491 4.23299 92.3291C5.80599 91.3851 7.38877 90.4353 8.9813 89.4796C12.1762 87.5624 15.4394 85.6041 18.7515 83.6165C32.0097 75.6602 46.1619 67.1343 61.0614 58.1931C75.9708 49.2459 91.6129 39.859 107.827 30.096C115.936 25.2296 124.192 20.2753 132.575 15.2447C136.766 12.7294 140.987 10.1966 145.227 7.65195C147.347 6.37965 149.477 5.10149 151.617 3.81746C152.164 3.48912 152.655 3.17794 153.246 2.85634C153.851 2.55905 154.562 2.48021 155.284 2.57616C156.708 2.77979 158.177 3.83309 159.036 5.28596C171.879 26.687 184.422 47.5894 196.536 67.7745C202.592 77.867 208.539 87.7771 214.37 97.4927C217.281 102.344 220.163 107.147 223.017 111.902C223.732 113.094 224.439 114.273 225.147 115.453L226.205 117.216C226.578 117.836 226.867 118.539 226.995 119.239C227.26 120.635 226.977 122.045 226.2 122.941C225.821 123.417 225.296 123.716 224.839 123.973L223.442 124.812C193.618 142.676 166.755 158.763 144.201 172.265C121.639 185.755 103.376 196.665 90.7383 204.216C84.4219 207.973 79.5222 210.88 76.1833 212.868C75.3333 213.378 74.3671 213.362 73.5769 213.175C72.7819 212.957 72.1386 212.549 71.6831 212.145C71.2178 211.746 70.9477 211.362 70.7579 211.112C70.5973 210.845 70.517 210.711 70.517 210.711L70.495 210.741Z" fill="#263238"/>
<path d="M156.935 25.1229C155.362 26.0669 153.143 25.2484 151.968 23.2907C150.794 21.3329 151.115 18.99 152.688 18.046C154.261 17.1021 156.48 17.9206 157.655 19.8783C158.83 21.836 158.508 24.179 156.935 25.1229Z" fill="white"/>
<path d="M158.496 34.1696C159.669 36.1238 161.892 36.9441 163.462 36.0018C165.033 35.0596 165.355 32.7115 164.182 30.7572C163.009 28.803 160.786 27.9826 159.215 28.9249C157.645 29.8672 157.323 32.2153 158.496 34.1696Z" fill="white"/>
<path d="M165.043 45.0797C166.215 47.034 168.439 47.8543 170.009 46.912C171.579 45.9697 171.902 43.6216 170.729 41.6674C169.556 39.7131 167.333 38.8928 165.762 39.8351C164.192 40.7774 163.87 43.1255 165.043 45.0797Z" fill="white"/>
<path d="M146.772 78.2063L133.506 56.1001C132.711 54.7747 132.928 53.1886 133.993 52.5496C135.058 51.9105 136.56 52.4646 137.355 53.79L150.622 75.8963C151.417 77.2217 151.199 78.8077 150.134 79.4467C149.069 80.0858 147.567 79.5317 146.772 78.2063Z" fill="#263238"/>
<path d="M136.686 84.2532L123.42 62.1469C122.625 60.8215 122.842 59.2355 123.907 58.5964C124.972 57.9574 126.474 58.5115 127.27 59.8369L140.536 81.9431C141.331 83.2685 141.113 84.8545 140.048 85.4936C138.983 86.1327 137.482 85.5786 136.686 84.2532Z" fill="#E0E0E0"/>
<path d="M109.424 101.472L96.1584 79.3657C95.363 78.0403 95.5806 76.4543 96.6456 75.8152C97.7105 75.1761 99.2125 75.7302 100.008 77.0556L113.274 99.1619C114.069 100.487 113.852 102.073 112.787 102.712C111.722 103.351 110.22 102.797 109.424 101.472Z" fill="#E0E0E0"/>
<path d="M126.26 90.5149L112.994 68.4087C112.199 67.0833 112.417 65.4972 113.482 64.8582C114.546 64.2191 116.048 64.7732 116.844 66.0986L130.11 88.2048C130.905 89.5302 130.688 91.1163 129.623 91.7553C128.558 92.3944 127.056 91.8403 126.26 90.5149Z" fill="#FF725E"/>
<path d="M68.108 125.413L54.842 103.307C54.0466 101.982 54.2642 100.396 55.3292 99.7566C56.3941 99.1175 57.896 99.6716 58.6914 100.997L71.9575 123.103C72.7529 124.429 72.5352 126.015 71.4703 126.654C70.4053 127.293 68.9034 126.739 68.108 125.413Z" fill="#FF725E"/>
<path d="M168.03 113.62L154.764 91.5141C153.968 90.1887 154.186 88.6027 155.251 87.9636C156.316 87.3245 157.818 87.8786 158.613 89.204L171.879 111.31C172.675 112.636 172.457 114.222 171.392 114.861C170.327 115.5 168.825 114.946 168.03 113.62Z" fill="#455A64"/>
<path d="M172.308 143.617L144.55 97.3621C143.82 96.1461 144.096 94.6574 145.161 94.0183C146.226 93.3792 147.677 93.8482 148.399 95.052L176.157 141.307C176.887 142.523 176.611 144.012 175.546 144.651C174.481 145.29 173.03 144.821 172.308 143.617Z" fill="#263238"/>
<path d="M161.132 148.623L133.184 102.052C132.44 100.812 132.694 99.2863 133.759 98.6472C134.824 98.0081 136.289 98.5014 137.034 99.7417L164.981 146.313C165.726 147.554 165.471 149.079 164.407 149.718C163.342 150.357 161.876 149.864 161.132 148.623Z" fill="#E0E0E0"/>
<path d="M132.503 120.037L104.555 73.4659C103.811 72.2256 104.065 70.7004 105.13 70.0613C106.195 69.4222 107.66 69.9155 108.405 71.1558L136.352 117.727C137.097 118.968 136.843 120.493 135.778 121.132C134.713 121.771 133.247 121.278 132.503 120.037Z" fill="#E0E0E0"/>
<path d="M128.926 44.0873C127.841 44.7381 126.315 44.1655 125.512 42.828C124.71 41.4904 124.932 39.8684 126.007 39.2234C127.082 38.5785 128.618 39.1452 129.42 40.4827C130.223 41.8203 130 43.4423 128.926 44.0873Z" fill="#455A64"/>
<path d="M138.582 38.3021C137.497 38.9529 135.971 38.3804 135.169 37.0428C134.366 35.7052 134.588 34.0832 135.663 33.4383C136.738 32.7933 138.274 33.36 139.077 34.6976C139.879 36.0351 139.657 37.6572 138.582 38.3021Z" fill="#455A64"/>
<path d="M118.871 50.1341C117.787 50.785 116.26 50.2124 115.458 48.8748C114.655 47.5373 114.877 45.9152 115.952 45.2703C117.027 44.6253 118.563 45.192 119.366 46.5296C120.168 47.8672 119.946 49.4892 118.871 50.1341Z" fill="#455A64"/>
<path d="M108.41 56.4037C107.326 57.0545 105.799 56.4819 104.997 55.1444C104.194 53.8068 104.417 52.1848 105.491 51.5398C106.566 50.8949 108.102 51.4616 108.905 52.7991C109.707 54.1367 109.485 55.7587 108.41 56.4037Z" fill="#455A64"/>
<path d="M81.2135 118.406L67.9474 96.2993C67.1521 94.9739 67.3697 93.3879 68.4346 92.7488C69.4996 92.1097 71.0015 92.6638 71.7969 93.9892L85.0629 116.095C85.8583 117.421 85.6407 119.007 84.5757 119.646C83.5108 120.285 82.0089 119.731 81.2135 118.406Z" fill="#E0E0E0"/>
<path d="M98.0416 107.449L84.7756 85.3422C83.9802 84.0168 84.1978 82.4308 85.2628 81.7918C86.3277 81.1527 87.8296 81.7068 88.625 83.0322L101.891 105.138C102.686 106.464 102.469 108.05 101.404 108.689C100.339 109.328 98.837 108.774 98.0416 107.449Z" fill="#FF725E"/>
<path d="M132.909 165.565L104.961 118.993C104.217 117.753 104.471 116.228 105.536 115.589C106.601 114.95 108.067 115.443 108.811 116.683L136.759 163.255C137.503 164.495 137.249 166.02 136.184 166.659C135.119 167.298 133.653 166.805 132.909 165.565Z" fill="#E0E0E0"/>
<path d="M104.292 136.979L76.3442 90.4073C75.5999 89.167 75.8541 87.6418 76.919 87.0027C77.984 86.3636 79.4494 86.8569 80.1937 88.0972L108.141 134.669C108.886 135.909 108.632 137.434 107.567 138.073C106.502 138.712 105.036 138.219 104.292 136.979Z" fill="#E0E0E0"/>
<path d="M80.1913 73.3373C79.1069 73.9881 77.5806 73.4155 76.7779 72.078C75.9752 70.7404 76.1978 69.1184 77.2725 68.4734C78.3472 67.8285 79.8833 68.3952 80.686 69.7327C81.4887 71.0703 81.2661 72.6923 80.1913 73.3373Z" fill="#455A64"/>
<path d="M154.114 61.0441L145.81 47.2064C145.423 46.5617 144.689 46.2911 144.171 46.6019L142.325 47.7101C141.807 48.0209 141.701 48.7955 142.087 49.4402L150.391 63.2779C150.778 63.9226 151.512 64.1933 152.03 63.8824L153.877 62.7743C154.395 62.4634 154.501 61.6888 154.114 61.0441Z" fill="#455A64"/>
<path d="M57.8385 131.57L44.5724 109.463C43.7771 108.138 43.9947 106.552 45.0596 105.913C46.1246 105.274 47.6265 105.828 48.4219 107.153L61.6879 129.26C62.4833 130.585 62.2657 132.171 61.2007 132.81C60.1358 133.449 58.6339 132.895 57.8385 131.57Z" fill="#263238"/>
<path d="M79.0963 166.995L65.8303 144.889C65.0349 143.564 65.2525 141.978 66.3175 141.339C67.3824 140.7 68.8843 141.254 69.6797 142.579L82.9458 164.685C83.7411 166.011 83.5235 167.597 82.4586 168.236C81.3936 168.875 79.8917 168.321 79.0963 166.995Z" fill="#455A64"/>
<path d="M39.9882 97.4662C38.9037 98.117 37.3774 97.5444 36.5748 96.2069C35.7721 94.8693 35.9947 93.2473 37.0694 92.6023C38.1441 91.9574 39.6802 92.5241 40.4828 93.8616C41.2855 95.1992 41.0629 96.8212 39.9882 97.4662Z" fill="#455A64"/>
<path d="M30.7109 103.036C29.6264 103.687 28.1001 103.115 27.2974 101.777C26.4947 100.44 26.7173 98.8176 27.7921 98.1726C28.8668 97.5277 30.4028 98.0944 31.2055 99.4319C32.0082 100.769 31.7856 102.392 30.7109 103.036Z" fill="#455A64"/>
<path d="M46.2468 125.782L37.9427 111.945C37.5558 111.3 36.8223 111.029 36.3042 111.34L34.4577 112.448C33.9397 112.759 33.8334 113.534 34.2202 114.179L42.5243 128.016C42.9112 128.661 43.6448 128.932 44.1628 128.621L46.0093 127.513C46.5273 127.202 46.6336 126.427 46.2468 125.782Z" fill="#455A64"/>
</svg>
