<svg width="72" height="71" viewBox="0 0 72 71" fill="none" xmlns="http://www.w3.org/2000/svg">
<path d="M69.5324 24.3808L55.2482 65.089C54.2618 67.9001 51.6246 69.5405 49.3659 68.7479L4.09429 52.8624C1.8356 52.0699 0.801625 49.1413 1.78802 46.3302L10.8475 20.5118L34.4132 6.33462L67.2327 17.8508C69.4914 18.6433 70.5253 21.5719 69.5389 24.383L69.5324 24.3808Z" fill="#FF725E"/>
<g opacity="0.2">
<path d="M37.5908 63.4876L54.7461 14.5972C54.9394 14.0464 55.4631 13.7206 55.9057 13.8759L67.1016 17.8045C69.4319 18.6222 70.4952 21.6339 69.4775 24.5341L55.3013 64.9345C54.2836 67.8347 51.5716 69.5216 49.2413 68.704L38.0454 64.7754C37.6028 64.6201 37.3975 64.0385 37.5908 63.4876Z" fill="black"/>
</g>
<g opacity="0.2">
<path d="M10.8477 20.5117L23.5927 24.9839C25.6952 25.7216 28.1454 24.1975 29.0635 21.5809L34.4134 6.33452L10.8477 20.5117Z" fill="white"/>
</g>
<g opacity="0.2">
<path d="M24.7779 25.1626C24.7779 25.1626 27.7987 26.4501 30.352 22.4237C30.4479 22.2753 30.5336 22.1143 30.6193 21.9534C31.605 20.061 38.0791 7.61113 37.8382 7.52662L34.4144 6.32522L29.0645 21.5716C29.0645 21.5716 27.6244 25.3426 24.7872 25.1568L24.7779 25.1626Z" fill="black"/>
</g>
<path d="M49.4239 52.3995C47.5037 51.7257 46.7792 49.4152 47.6433 46.9525C48.1237 45.5834 48.9216 44.5805 49.9122 44.091L50.3722 45.5717C49.6964 45.9351 49.2029 46.508 48.9244 47.3019C48.4042 48.7844 48.8678 50.1299 50.072 50.5525C51.2762 50.975 52.4789 50.2142 52.9991 48.7317C53.2777 47.9378 53.2569 47.1844 52.9433 46.4739L54.2278 45.6053C54.7018 46.6087 54.7045 47.8926 54.2213 49.2698C53.36 51.7244 51.3441 53.0733 49.4304 52.4018L49.4239 52.3995Z" fill="#FAFAFA"/>
<path d="M54.8132 45.2084L53.9255 44.1963C54.5492 43.669 55.1722 42.7685 55.5048 41.8207C55.8857 40.7351 55.7463 40.1949 55.3557 40.0579C54.1645 39.6399 53.3701 44.5291 51.0072 43.7C49.9267 43.3209 49.4094 41.9201 50.1996 39.668C50.5493 38.6715 51.0934 37.7251 51.7296 37.1204L52.6502 38.0803C52.053 38.6988 51.6259 39.3951 51.3786 40.0999C50.9977 41.1854 51.1753 41.7209 51.5789 41.8625C52.7506 42.2736 53.558 37.389 55.8948 38.2089C56.9558 38.5812 57.4834 39.9947 56.6874 42.263C56.2468 43.5187 55.504 44.6774 54.8205 45.2291L54.8132 45.2084Z" fill="#FAFAFA"/>
<path d="M57.3455 37.9899L56.4578 36.9778C57.0815 36.4506 57.7045 35.5501 58.0399 34.5941C58.4209 33.5086 58.2814 32.9683 57.8909 32.8313C56.6997 32.4133 55.9052 37.3026 53.5424 36.4734C52.4619 36.0943 51.9445 34.6935 52.7348 32.4414C53.0844 31.445 53.6314 30.4905 54.2647 29.8938L55.1853 30.8538C54.5882 31.4722 54.1611 32.1685 53.9138 32.8733C53.5328 33.9589 53.7105 34.4943 54.1141 34.6359C55.2857 35.0471 56.0932 30.1624 58.43 30.9824C59.491 31.3547 60.0185 32.7681 59.2226 35.0364C58.782 36.2921 58.0391 37.4508 57.3557 38.0026L57.3455 37.9899Z" fill="#FAFAFA"/>
<path d="M29.7478 42.592C30.2424 41.8284 30.8056 41.5984 31.808 41.9501L34.1449 42.7701C34.8283 43.0099 35.3789 42.7118 35.6916 41.8207L35.8053 41.4966L37.5888 42.1225L37.2193 43.1756C36.4205 45.452 35.0767 46.2816 33.3973 45.6923L30.7545 44.765C30.2859 44.6005 29.9565 44.8307 29.7831 45.3249L29.5728 45.9244L27.7893 45.2986L27.9996 44.6991C28.173 44.2049 28.0597 43.8194 27.5911 43.6549L24.9483 42.7276C23.2689 42.1383 22.741 40.6429 23.5369 38.3746L23.9064 37.3214L25.69 37.9472L25.5763 38.2713C25.2636 39.1624 25.5071 39.7392 26.1906 39.979L28.5274 40.799C29.5363 41.153 29.8258 41.6822 29.7348 42.5875L29.7478 42.592Z" fill="#FAFAFA"/>
<path d="M35.7335 22.674L37.517 23.2998L37.3066 23.8993C37.1332 24.3935 37.2465 24.779 37.7152 24.9434L40.3579 25.8707C42.0373 26.46 42.5653 27.9555 41.7694 30.2238L41.3998 31.277L39.6163 30.6511L39.73 30.3271C40.0427 29.436 39.7991 28.8592 39.1157 28.6193L36.7789 27.7994C35.7699 27.4453 35.4804 26.9161 35.5714 26.0109C35.0769 26.7745 34.5136 27.0045 33.5112 26.6528L31.1744 25.8328C30.4844 25.5907 29.9404 25.8911 29.6277 26.7822L29.514 27.1063L27.7305 26.4805L28.1 25.4273C28.8988 23.1509 30.2426 22.3213 31.922 22.9106L34.5647 23.8379C35.0334 24.0024 35.3627 23.7722 35.5361 23.278L35.7465 22.6785L35.7335 22.674Z" fill="#FAFAFA"/>
</svg>
