<svg width="129" height="131" viewBox="0 0 129 131" fill="none" xmlns="http://www.w3.org/2000/svg">
<path d="M121.022 87.7572L58.2532 126.129C53.9095 128.785 48.6739 128.101 46.5463 124.621L3.86795 54.808C1.73433 51.3178 3.53099 46.3486 7.86239 43.7007L47.6695 19.3655L94.0817 26.0478L125.016 76.6499C127.15 80.1401 125.353 85.1093 121.022 87.7572Z" fill="#FF725E"/>
<g opacity="0.2">
<path d="M35.1139 105.914L113.596 57.9361L124.717 76.1284C127.02 79.8953 125.086 85.2749 120.397 88.1409L58.884 125.746C54.1958 128.612 48.5258 127.881 46.223 124.114L35.1016 105.922L35.1139 105.914Z" fill="black"/>
</g>
<g opacity="0.2">
<path d="M47.6719 19.3672L59.6818 39.0128C61.6643 42.2558 66.5452 42.8848 70.5813 40.4174L94.0964 26.042L47.6842 19.3597L47.6719 19.3672Z" fill="white"/>
</g>
<g opacity="0.2">
<path d="M61.0512 40.5359C61.0512 40.5359 63.6568 45.4896 71.3673 42.9219C71.662 42.8232 71.9446 42.7048 72.2272 42.5864C75.5632 41.1582 97.5454 31.6859 97.3157 31.3101L94.0881 26.0304L70.573 40.4059C70.573 40.4059 64.6068 43.8359 61.0451 40.526L61.0512 40.5359Z" fill="black"/>
</g>
<path d="M54.7079 65.5609L46.9806 74.1014L58.0866 71.0878L59.8213 73.9254L43.8451 78.0419L42.0378 75.0857L52.9852 62.7431L54.7079 65.5609Z" fill="#FAFAFA"/>
<path d="M59.699 50.9662L63.6366 48.5591L67.3888 75.684L63.4512 78.0912L59.699 50.9662Z" fill="#FAFAFA"/>
<path d="M83.5348 49.7194L85.342 52.6756L74.3946 65.0182L72.6599 62.1806L80.4054 53.6698L69.2812 56.6538L67.5586 53.8359L83.5348 49.7194Z" fill="#FAFAFA"/>
<path d="M69.8314 97.4894L75.0113 105.963L72.5749 107.452L70.4534 103.982L65.6667 106.908L67.7882 110.378L65.3518 111.868L60.1719 103.395L62.6083 101.905L64.6512 105.247L69.4379 102.321L67.395 98.9789L69.8314 97.4894Z" fill="#FAFAFA"/>
<path d="M75.4758 96.2202L72.1042 98.2814L71.125 96.6797L80.3169 91.0604L81.2961 92.6621L77.9245 94.7233L82.1313 101.605L79.6949 103.094L75.4881 96.2127L75.4758 96.2202Z" fill="#FAFAFA"/>
<path d="M96.4062 92.8828L93.2995 87.8008L92.749 93.8961L91.6539 94.5656L86.069 92.3704L89.1093 97.3436L86.8205 98.7428L81.6406 90.2695L83.6587 89.0358L90.8302 91.891L91.497 84.244L93.5028 83.0179L98.7073 91.4761L96.4185 92.8752L96.4062 92.8828Z" fill="#FAFAFA"/>
<path d="M96.0312 81.4727L98.4677 79.9832L102.674 86.8646L107.966 83.63L108.945 85.2317L101.217 89.9558L96.0373 81.4825L96.0312 81.4727Z" fill="#FAFAFA"/>
</svg>
