<svg width="257" height="279" viewBox="0 0 257 279" fill="none" xmlns="http://www.w3.org/2000/svg">
<path d="M178.694 10.5737C178.694 10.5737 173.407 2.37555 166.757 3.17342C160.106 3.97128 20.6124 73.9986 17.3028 75.9254C12.0964 78.9451 6.94742 86.5533 11.5785 97.4091C15.6153 106.862 65.8838 237.589 78.5393 270.51C80.2302 274.879 84.8017 276.123 89.2695 275.058L35.8277 109.804L178.694 10.5737Z" fill="#E0E0E0"/>
<path d="M172.281 8.387L21.4527 82.8727C18.9998 84.1271 17.9056 87.1161 18.9083 89.7958L89.6422 274.909L109.649 226.351L63.9924 105.986L181.438 45.7657C183 44.9636 183.847 43.2006 183.581 41.402L179.177 12.1764C178.681 8.85209 175.17 6.92791 172.281 8.387Z" fill="#E0E0E0"/>
<path d="M67.1234 204.635L73.7723 221.814L92.3419 189.654L88.3984 179.465L67.1234 204.635Z" fill="#263238"/>
<path d="M167.688 17.4714L37.0058 83.1376L65.0905 100.381L175.395 45.5978C176.276 45.167 176.74 44.1444 176.506 43.1405L170.779 19.02C170.439 17.6087 168.931 16.8647 167.7 17.5026L167.688 17.4714Z" fill="#263238"/>
<path d="M27.3835 101.968L34.2438 119.693L68.1947 127.275L64.2452 117.07L27.3835 101.968Z" fill="#263238"/>
<path d="M35.8015 123.722L42.4504 140.901L73.0738 139.885L69.1243 129.68L35.8015 123.722Z" fill="#263238"/>
<path d="M43.9382 144.753L50.5871 161.932L77.9193 152.412L73.9758 142.223L43.9382 144.753Z" fill="#263238"/>
<path d="M51.4851 164.257L58.134 181.436L82.652 164.645L78.7085 154.456L51.4851 164.257Z" fill="#263238"/>
<path d="M59.3528 184.568L66.0018 201.747L87.5607 177.31L83.6172 167.121L59.3528 184.568Z" fill="#263238"/>
<path d="M78.6983 218.924C78.563 218.976 68.3182 192.818 55.8175 160.519C43.3168 128.22 33.2765 101.966 33.4118 101.913C33.5471 101.861 43.7918 128.018 56.2986 160.333C68.8054 192.648 78.8336 218.871 78.6983 218.924Z" fill="#E0E0E0"/>
<path d="M82.4333 213.885C82.298 213.937 72.5666 189.106 60.6879 158.414C48.8092 127.722 39.2882 102.81 39.4235 102.757C39.5588 102.705 49.2902 127.536 61.1689 158.228C73.0477 188.92 82.5686 213.832 82.4333 213.885Z" fill="#E0E0E0"/>
<path d="M86.9202 212.152C86.6662 212.25 77.3985 188.926 66.2203 160.044C55.0421 131.162 46.1928 107.676 46.4469 107.578C46.7009 107.479 55.9687 130.804 67.1469 159.686C78.325 188.567 87.1743 212.054 86.9202 212.152Z" fill="#E0E0E0"/>
<path d="M91.2946 211.284C91.0405 211.382 81.966 188.557 71.0354 160.315C60.1048 132.073 51.4428 109.071 51.6969 108.972C51.9509 108.874 61.0254 131.699 71.962 159.957C82.8987 188.214 91.5486 211.186 91.2946 211.284Z" fill="#E0E0E0"/>
<path d="M95.2261 212.525C94.9721 212.624 85.8372 189.643 74.8341 161.213C63.8311 132.784 55.1147 109.641 55.3687 109.543C55.6228 109.444 64.7516 132.41 75.7607 160.855C86.7698 189.3 95.4802 212.427 95.2261 212.525Z" fill="#E0E0E0"/>
<path d="M99.3265 213.843C99.0725 213.941 89.7745 190.539 78.5601 161.563C67.3457 132.588 58.4662 109.024 58.7203 108.925C58.9744 108.827 68.2723 132.229 79.4867 161.205C90.7011 190.18 99.5806 213.745 99.3265 213.843Z" fill="#E0E0E0"/>
<path d="M22.4734 85.4572C36.1689 92.4281 49.8645 99.3989 63.56 106.37L22.4734 85.4572Z" fill="#E0E0E0"/>
<path d="M63.5584 106.373C63.4693 106.587 54.1788 102.074 42.8398 96.3078C31.4948 90.5263 22.3827 85.6747 22.4718 85.4608C22.5608 85.2469 31.8453 89.7448 43.1903 95.5263C54.5353 101.308 63.6474 106.159 63.5584 106.373Z" fill="#263238"/>
</svg>
