<svg width="65" height="67" viewBox="0 0 65 67" fill="none" xmlns="http://www.w3.org/2000/svg">
<path d="M50.0806 65.7647L6.15009 59.0469C3.11171 58.5823 0.953663 56.2292 1.32698 53.7879L8.79704 4.93772C9.17036 2.4964 11.933 0.895762 14.9714 1.36038L42.8355 5.62131L61.669 26.7823L56.255 62.1873C55.8816 64.6286 53.119 66.2293 50.0806 65.7647Z" fill="#F5F5F5"/>
<path d="M3.32812 40.6992L58.2413 49.0964L56.3892 61.2077C55.934 64.1849 52.5556 66.1424 48.8502 65.5757L7.36522 59.2319C3.65988 58.6653 1.02082 55.7877 1.47609 52.8105L3.32812 40.6992Z" fill="#E0E0E0"/>
<path d="M21.0678 54.96L22.6502 53.837C23.1317 54.5565 23.7347 54.9778 24.5054 55.0957C25.4984 55.2475 26.1048 54.8528 26.2505 53.9L26.8788 49.7915L23.0993 49.2135L23.3452 47.6058L29.5998 48.5623L28.7439 54.1595C28.4179 56.2911 26.9237 57.1351 24.3893 56.7476C22.9516 56.5277 21.7444 55.8922 21.0845 54.9503L21.0678 54.96Z" fill="#FAFAFA"/>
<path d="M29.8491 56.8165L30.8607 55.5574C31.5435 56.0518 32.6151 56.4838 33.6377 56.6402C34.7493 56.8102 35.2008 56.6355 35.2572 56.2663C35.4229 55.1826 30.2588 55.5263 30.6649 52.8706C30.8579 51.6083 32.4007 50.9424 34.8166 51.3118C35.9578 51.4863 37.1848 51.8933 37.8991 52.3803L36.8893 53.6275C36.1306 53.1336 35.3336 52.8899 34.5778 52.7743C33.4958 52.6089 32.9944 52.8125 32.9416 53.1579C32.7686 54.2892 37.931 53.9574 37.5303 56.5773C37.3409 57.8159 35.7852 58.4676 33.31 58.0891C31.9168 57.8761 30.5413 57.3489 29.8473 56.8284L29.8491 56.8165Z" fill="#FAFAFA"/>
<path d="M16.3678 33.298L18.3348 31.9413C19.2645 33.3997 20.6114 34.3126 22.3603 34.58C24.7021 34.9381 26.0923 33.9807 26.4346 31.7418L27.8678 22.3696L20.3534 21.2205L20.6702 19.1483L31.1193 20.7462L29.3856 32.0834C28.8175 35.799 26.2823 37.3003 22.0286 36.6499C19.5683 36.2736 17.4317 35.0694 16.3345 33.3173L16.3678 33.298Z" fill="#FAFAFA"/>
<path d="M32.4489 36.6628L33.9114 35.034C35.1288 36.0001 37.1793 36.8743 39.2395 37.1893C41.8777 37.5927 43.0728 37.1174 43.2367 36.0456C43.6701 33.2113 33.3498 34.1437 34.1201 29.1063C34.4661 26.8436 37.2189 25.7045 41.2651 26.3233C43.3104 26.6361 45.557 27.4183 46.8261 28.3437L45.334 29.9679C44.024 29.012 42.493 28.5098 40.9516 28.2741C38.4616 27.8933 37.1334 28.4458 36.9804 29.4462C36.5251 32.4234 46.8714 31.5193 46.1193 36.4376C45.7697 38.7241 42.9389 39.7781 38.7445 39.1367C36.1359 38.7378 33.6405 37.6981 32.4637 36.6651L32.4489 36.6628Z" fill="#FAFAFA"/>
<path d="M42.8203 5.61719L40.717 19.3719C40.371 21.6346 42.3712 23.8295 45.2021 24.2624L61.6538 26.7782L42.8185 5.6291L42.8203 5.61719Z" fill="#EBEBEB"/>
<path d="M40.7726 20.6155C40.7726 20.6155 40.0404 23.916 44.6009 25.7346C44.7733 25.7976 44.9457 25.8605 45.1199 25.9115C47.2216 26.5498 61.0516 30.7365 61.0917 30.4745L61.6562 26.7827L45.2045 24.267C45.2045 24.267 41.1154 23.532 40.7578 20.6133L40.7726 20.6155Z" fill="#E0E0E0"/>
</svg>
